<svg xmlns="http://www.w3.org/2000/svg" viewBox="0 0 400 400" role="img" aria-label="Stationery and accessories mystery box">
  <defs>
    <linearGradient id="g-stationery" x1="0" y1="0" x2="1" y2="1">
      <stop offset="0%" stop-color="#e14d82" />
      <stop offset="100%" stop-color="#7a3dc2" />
    </linearGradient>
  </defs>
  <rect width="400" height="400" rx="28" fill="url(#g-stationery)" />
  <circle cx="200" cy="190" r="120" fill="#ffffff" fill-opacity="0.14" />
  <g transform="translate(200,200)"><g fill="none" stroke="#ffffff" stroke-width="10" stroke-linecap="round" stroke-linejoin="round">
    <path d="M -20 70 L -35 25 L 45 -55 L 80 -20 L 10 60 Z" />
    <path d="M -35 25 L -20 40" />
    <path d="M 45 -55 L 80 -20" />
    <rect x="-80" y="-10" width="90" height="110" rx="8" />
    <line x1="-65" y1="15" x2="-25" y2="15" />
    <line x1="-65" y1="40" x2="-25" y2="40" />
    <line x1="-65" y1="65" x2="-25" y2="65" />
  </g></g>
  <g fill="#ffffff" fill-opacity="0.9">
    <path d="M -150 -150 l 6 14 14 6 -14 6 -6 14 -6 -14 -14 -6 14 -6 Z" />
    <path d="M 140 150 l 4 10 10 4 -10 4 -4 10 -4 -10 -10 -4 10 -4 Z" />
  </g>
</svg>